<svg xmlns="http://www.w3.org/2000/svg" viewBox="0 0 496 726"><path fill-rule="evenodd" d="M282.551 726C45.022 725.948 0 443.12 0 443.12s40.316 250.47 276.409 249.057c124.519-.745 177.25-106.567 175.058-176.799-2.111-67.674-47.884-129.985-118.241-122.991-70.357 6.994-63.857 77.253-52.211 103.005-59.467-5.153-62.569-142.312 70.638-146.052C441.439 346.819 496 448.142 496 503.079c0 78.538-38.426 222.959-213.449 222.921ZM401.97 218.129c-38.398 47.367-238.625 154.682-226.911 246.515 4.34 34.027 40.433 114.032 124.384 92.243 90.26-29.096 12.285-121.453 12.285-121.453s54.532-.821 72.173 33.822c17.958 35.266-6.32 123.958-105.957 121.454-198.495-7.775-190.266-220.468-144.168-294.513 53.221-85.486 240.911-166.01 240.911-218.975 26.039 57.878-116.241 135.152-128.99 146.052-11.647 11.269-163.776 105.065-86.473 263.547 1.089 2.346 2.246 4.692 3.55 7.033a266.788 266.788 0 0 1-3.55-7.033C111.479 383.959 270.352 276.943 326.593 237.61c8.846-6.187 98.058-73.755 66.522-163.463-40.04-113.892-259.517 21.524-259.517 21.524S260.226-6.373 339.368.353C479.958 12.3 434.875 185.25 401.97 218.129Z"/></svg>